<svg width="54" height="40" fill="none" xmlns="http://www.w3.org/2000/svg"><path d="M40 0c2.4 0 4.7.7 6.8 2 2.2 1.3 4 3.1 5.3 5.6a21 21 0 0 1-.5 18.3c-.5 1-1.5 2.6-2.9 4.3a79.3 79.3 0 0 1-4 4.7l-5 5.1-3.7-6c2.5-1.6 4.7-3.5 6.7-5.9 1.9-2.2 2.9-4.3 2.9-6.2a4 4 0 0 0-.7-2.4c-1.9 1.4-4 2-6.2 2-1.7 0-3.3-.5-4.8-1.5s-2.8-2.3-3.7-3.9a9.2 9.2 0 0 1 .3-10.3c1-1.8 2.4-3.2 4.2-4.3C36.4.5 38.2 0 40 0ZM11.2 0c2.4 0 4.7.7 6.8 2 2.1 1.3 3.9 3.1 5.2 5.6a20.5 20.5 0 0 1 1 14.9c-.5 1.8-1.5 3.8-3 5.9a46 46 0 0 1-4 4.9C16 34.6 14 36.9 10.9 40l-3.6-6c2.4-1.6 4.7-3.5 6.7-6 2-2.2 2.9-4.3 2.9-6.2a4 4 0 0 0-.6-2.4c-2 1.4-4 2-6.3 2-1.7 0-3.3-.5-4.8-1.5S2.5 17.6 1.5 16A9.2 9.2 0 0 1 0 11.2c0-1.9.5-3.7 1.6-5.4C2.6 4 4.1 2.6 6 1.5 7.6.5 9.3 0 11.2 0Z" fill="#E1E1E1"/></svg>