<svg version="1.0" xmlns="http://www.w3.org/2000/svg" width="94.667" height="94.667" viewBox="0 0 71 71"><path d="M26 .9c-4.4 1.4-12.4 5.8-15.6 8.8-1.7 1.5-4.7 5.5-6.5 8.8C.6 24.3.5 24.9.6 35c0 9.1.3 11.2 2.6 15.7 1.4 2.9 2.8 5 3.2 4.6.3-.3.6.1.6 1 0 2 10.3 10.3 14 11.3.3 0 1.4.4 2.5.8s3.2 1.2 4.6 1.8c3.1 1.1 13.9.8 13.9-.4 0-.5.4-.7.8-.4C44.9 70.7 62 60.1 62 57.6c0-.4 1.1-2.2 2.5-4 1.4-1.8 2.2-3.6 1.8-3.9-.3-.4-.1-.7.4-.7.6 0 1.4-1.8 1.8-4 .4-2.2 1.2-4 1.8-4 .7 0 .5-.5-.3-1s-1-1-.5-1c.6 0 1.2-1.1 1.3-2.6.1-1.8-.2-2.3-1.1-1.8-.8.5-.7.2.2-.9 1.1-1.4 1.1-1.7 0-1.7-1.2 0-1.2-.2 0-.9.9-.6 1-1.1.2-1.5-.6-.4-1.1-1.4-1.1-2.3 0-3-5.1-12-9-15.9-4.8-4.8-5.7-5.5-9.5-7.4-1.6-.8-3.3-1.9-3.6-2.4C46 .5 29.3 0 26 .9z"/></svg>