<svg aria-hidden="true" style="width:0;height:0;position:absolute;overflow:hidden" xmlns="http://www.w3.org/2000/svg"><defs><symbol id="logo" viewBox="0 0 127 32"><path fill="#fff" d="M31.36 16.32C31.36 24.98 24.483 32 16 32S.64 24.98.64 16.32 7.517.64 16 .64s15.36 7.02 15.36 15.68z"/><path fill="#d41443" d="M11.849.562C4.443 2.805 0 8.635 0 16.004c0 6.023 3.091 11.277 8.179 13.904 2.64 1.346 3.027.384.58-1.474-1.739-1.41-2.061-2.05-2.061-4.421 0-1.666-.386-3.011-.966-3.524-1.159-.961-1.288-3.46-.129-4.357.451-.384.902-1.666.966-2.819.322-4.229 4.894-8.201 9.467-8.201s9.145 3.973 9.466 8.201c.064 1.153.515 2.435.966 2.819 1.159.897 1.03 3.396-.129 4.357-.58.513-.966 1.858-.966 3.524 0 2.371-.322 3.011-2.061 4.421-2.705 2.114-1.932 2.883 1.095 1.025 4.25-2.627 7.406-8.33 7.406-13.391C31.813 5.944 21.252-2.257 11.85.562z"/><path fill="#d41443" d="M12.686 7.994c-1.159.513-2.125 1.153-2.125 1.538 0 .705 3.477 1.986 5.474 1.986s5.474-1.281 5.474-1.986c0-.769-3.993-2.499-5.603-2.499-.644.064-2.125.449-3.22.961zM45.851 11.326c-.966.256-1.159 1.089-1.159 5.703v5.382h4.572l-.193-5.574c-.193-5.831-.451-6.279-3.22-5.51zM53.386 11.646c-2.125 1.153-2.898 2.563-2.898 5.318 0 3.78 2.061 5.574 5.86 5.318 2.576-.192 2.833-.384 3.027-1.986s.064-1.73-1.932-1.602c-2.061.192-2.125.064-2.125-2.05s.129-2.243 1.996-2.05c1.546.128 2.125-.128 2.383-1.089.129-.641 0-1.538-.386-1.922-.902-.897-4.25-.897-5.925.064zM61.049 11.71c-.193.513-.258 3.011-.129 5.638l.193 4.741h4.186c3.864 0 4.186-.128 4.379-1.474.193-1.217-.064-1.41-2.06-1.41-1.288 0-2.319-.32-2.319-.641 0-.384.902-.641 1.932-.641 1.481 0 1.932-.256 1.932-1.281s-.451-1.281-1.932-1.281c-1.03 0-1.932-.32-1.932-.641 0-.384.837-.641 1.868-.641 1.804 0 3.027-1.41 2.254-2.627-.58-.961-7.985-.705-8.372.256zM73.993 11.518c-2.125.833-2.962 2.307-3.027 4.998-.065 4.613 1.803 6.215 6.633 5.767 1.868-.128 2.189-.448 2.189-1.794 0-1.41-.257-1.602-2.061-1.41-1.546.128-2.125-.064-2.447-1.089-.58-1.986.644-3.588 2.705-3.588 1.224 0 1.868-.384 1.996-1.217.451-2.05-2.833-3.011-5.989-1.666zM81.914 11.262c-.323.256-.515 2.883-.515 5.831v5.382l2.06-.192c1.61-.128 2.19-.577 2.512-1.794l.386-1.602.515 1.73c.387 1.474.837 1.794 2.512 1.794 2.769 0 3.091-.448 1.932-2.691-.708-1.41-.837-2.114-.322-2.627.837-.833.902-3.652.129-4.87-.644-1.025-8.371-1.858-9.208-.961zm5.28 3.46c0 .705-.257 1.281-.644 1.281-.322 0-.644-.577-.644-1.281s.322-1.281.644-1.281c.387 0 .644.577.644 1.281zM93.441 11.326c-.258.192-.451 2.819-.451 5.767v5.318h4.186c4.057 0 4.186-.064 4.186-1.602 0-1.346-.322-1.602-1.932-1.602-1.03 0-1.932-.32-1.932-.641 0-.384.708-.641 1.61-.641 1.159 0 1.61-.32 1.61-1.281s-.451-1.281-1.61-1.281c-.902 0-1.61-.32-1.61-.641 0-.384.902-.641 1.932-.641 1.61 0 1.932-.256 1.932-1.602 0-1.538-.193-1.602-3.735-1.602-2.061 0-3.992.192-4.186.448zM106.45 11.262c-1.16.32-4.122 8.842-3.542 10.252.515 1.281 3.413 1.153 4.186-.192.579-1.089.644-1.089 1.803 0 1.482 1.281 4.701 1.474 4.701.256 0-.384-.644-2.947-1.482-5.574-1.288-4.229-1.674-4.806-3.027-4.934-.902 0-2.061.064-2.64.192zm1.803 5.831c-.193.641-.322.256-.322-.769 0-1.089.129-1.538.322-1.153.129.448.129 1.346 0 1.922zM115.723 11.326c-.58.192-.837 1.986-.837 5.703v5.382h1.868c1.61 0 1.932-.32 2.189-1.794.257-1.666.257-1.666.772-.32.258.833.902 1.474 1.352 1.474.515 0 1.224-.641 1.546-1.474.515-1.346.58-1.346.58.384.065 1.602.257 1.794 2.061 1.602l1.996-.192.065-5.318c.129-4.934.064-5.318-1.288-5.638-2.061-.513-3.799.705-4.379 3.076l-.451 2.114-.708-2.243c-.902-3.011-2.254-3.78-4.765-2.755zM9.016 11.967c-.193.256-.386 1.089-.386 1.922 0 1.474.064 1.474 7.406 1.474s7.406 0 7.406-1.474c0-2.178-.58-2.435-2.64-1.41-2.318 1.217-7.213 1.217-9.531 0-1.03-.513-1.996-.705-2.254-.513zM7.148 17.669c-1.03 1.089.708 1.538 5.731 1.538h5.409v2.243c0 1.217.322 2.243.644 2.243.386 0 .644-.961.644-2.178 0-2.114.129-2.243 2.576-2.435 1.417-.128 2.576-.513 2.576-.833 0-.705-16.872-1.281-17.581-.577z"/><path fill="#d41443" d="M8.629 23.308c0 3.524 1.224 4.229 7.406 4.229s7.406-.705 7.406-4.229c0-1.538-.322-2.178-.966-2.178-.58 0-.966.577-.966 1.538 0 3.588-4.894 3.908-5.603.384-.322-1.858-.515-1.922-3.8-1.922H8.629v2.178zM12.622 30.548c.386 2.05 6.955 1.858 6.955-.128 0-.705-.837-.961-3.606-.961-3.027 0-3.542.192-3.349 1.089z"/></symbol><symbol id="icon-burger" viewBox="0 0 47 32"><path fill="var(--current-color)" d="M0 1h46.7v2.3H0V1zm0 14h46.7v2.3H0V15zm0 13.7h46.7V31H0v-2.3z"/></symbol><symbol id="icon-close" viewBox="0 0 32 32"><path fill="var(--current-color)" d="M31.8 2.2 30.5.4l-14.6 14L1.9 0 .5 1.5l14 14.4L0 29.9l1.3 1.7 14.6-14 14 14.4 1.4-1.5L17.4 16z"/></symbol><symbol id="icon-arrow-right" viewBox="0 0 39 32"><path fill="var(--current-color)" d="M37.8 13.5 23.8.7c-1.3-1-3.3-1-4.5.3-1 1.3-1 3.2.3 4.5l8.3 7.6h-25a3 3 0 0 0 0 6h25l-8.3 7.5c-1.3 1.2-1.6 3.2-.3 4.4.6.7 1.2 1 2.2 1s1.6 0 2.2-1.3L37.8 18c.6-.3 1-1.6 1-2.2 0-.6-.4-1.6-1-2.2z"/></symbol><symbol id="icon-btn-arrow" viewBox="0 0 20 32"><path fill="var(--current-color)" d="M3 32c-1 0-1.5-.3-2.2-1-1.3-1.2-1-3.2.3-4.4L12.6 16 1.1 5.5A3.4 3.4 0 0 1 .8 1 3.4 3.4 0 0 1 5.3.7l14 12.8c.7.6 1 1.6 1 2.2s-.3 2-1 2.2l-14 12.8C4.6 32 4 32 3 32z"/></symbol><symbol id="icon-stat-apples" viewBox="0 0 32 32"><path fill="var(--current-color)" d="M29.6 21.4a4.7 4.7 0 0 0-3.2 0c.1-1 .4-1.9 1.1-2.5.5-.4.5-1.1 0-1.6s-1-.4-1.5 0a6.5 6.5 0 0 0-1.8 4l-1.1-.2 2-9.9c0-.3 0-.6-.3-.9a1 1 0 0 0-.9-.4h-.2l.2-1.5c0-2-1-3.5-2.4-4a4.7 4.7 0 0 0-3.5 0c.1-.9.5-2 1.3-2.7.4-.4.4-1.1 0-1.6s-1-.4-1.5 0a7 7 0 0 0-2 4.4c-.7-.3-1.7-.5-2.7-.3-1-1.6-2.6-2.3-4-2-1.5.4-2.4 1.1-3 2-.3-.9-.7-2-.4-3C5.8.6 5.5.1 4.9 0S3.8.1 3.6.7c-.4 1.7.1 3.5.8 4.7-1 .2-2.2.7-3.1 1.9C.7 8.1.5 9 .7 10c-.2 0-.3.2-.4.3l-.3.9L3.8 31c.2.6.6.9 1 .9h15.3c.5 0 1-.4 1-.9v-.2l1 .6c1.3.4 2.4.2 3 0a4 4 0 0 0 3-.1c2.4-.8 3.6-3.8 3.6-6.1.2-1.9-.7-3.3-2-3.8zm-7-9.2c-.5 4.7-4.4 7.9-10 7.9s-9.4-3.2-10-8h20zm-6.5-4.7c.2.3.5.6 1 .6a1 1 0 0 0 .9-.6s.3-.5.8-.8c.6-.4 1.3-.4 2.1-.1s1 1.5 1 2 0 1-.2 1.5h-7.1a7 7 0 0 0-.3-3.6c.4 0 .7 0 1 .3.4.2.7.6.8.7zM3 8.7c.5-.7 1.1-1 1.9-1 .6 0 1 .1 1 .2.4.2.8.2 1.2 0 .3-.3.5-.7.5-1 0-.1-.1-2 2-2.4.9-.2 1.6.7 1.9 1.1.8 1.2 1.2 3.2.8 4.4H3c-.2-.4-.2-1 0-1.3zm2.7 21.1-2-11 .4.4c2.1 2 5.2 3 8.5 3s6.3-1 8.5-3l.1-.1-.4 2.2h-.1c-1.4.5-2.2 2-2.3 3.9 0 1.1.3 2.4.9 3.6l-.2 1H5.8zm21.8-.4c-1 .3-1.9 0-2 0a.8.8 0 0 0-.7 0s-1 .3-2 0c-1.3-.5-2.2-2.6-2.2-4.2 0-.4.1-1.6.9-1.8.3-.2.6-.2 1-.2 1 0 1.6.8 1.7 1 .2.3.5.6 1 .6a1 1 0 0 0 1-.6c0-.3.9-1.5 2.7-.8.8.2.8 1.4.8 1.8 0 1.6-.9 3.7-2.2 4.2z"/></symbol><symbol id="icon-stat-heart" viewBox="0 0 29 32"><path fill="var(--current-color)" d="M5.7 17.3zM5 19zm0 0zM23 .3c-.8-.3-1.2-.3-2.5-.3h-1.4c-.4 0-.8.2-1.3.4-1.2.4-2.4 1-3.3 1.7l-.3.3-.4-.3c-.8-.6-2-1.3-3.3-1.7L9.3 0H7.8C6.5 0 6.2 0 5.4.2 2.1 1.3 0 4.6 0 8.6c0 3.6 1.5 6.9 4.4 9.8a19 19 0 0 0 6.2 4.3l1.2.5V32h1.9v-8.2h1.2V32h1.9v-8.8l1.2-.5c2.5-1.2 4.3-2.5 6.2-4.3 2.8-3 4.4-6.2 4.4-9.8-.3-4-2.4-7.2-5.7-8.3zm3.2 11.1-.4 1a13.3 13.3 0 0 1-3.7 5.5 20.5 20.5 0 0 1-7 4l-.9.4-.9-.3c-2.8-1-5.2-2.5-7.2-4.4-2.5-2.4-3.8-5-4.2-8v-2l.1-1 .2-.5H3l1.9.4c1.2.3 2.6 1 3.8 2l1.6 1c.8.7 2.2 1.5 3.2 2l.7.2.2.2h.1v.7l.1 2v2.2c0 .4.2.7.3 1 .2.4.5.7.9 1s.8.2 1.3.2l.9-.1.8-.6.3-.5.2-.5v-3.7c0-.4.1-.6.2-.7l.3-.3h.8a21 21 0 0 0 4.6-1l.8-.2h.1c0-.2 0-.1 0 0zm.2-2.3-.4.2-1 .4a15 15 0 0 1-4.4 1l-1.2.2c-.4 0-.5.1-.7.3l-.5.4a2 2 0 0 0-.4.7 11 11 0 0 0-.1 2.4l-.1 1.8-.1.4c-.2.2-.5.2-.8 0h-.1v-.4l-.1-2.2c0-1.3 0-2.1-.2-2.7l-.2-.6c0-.2-.2-.3-.3-.5h-.2l-.5-.3-1.2-.7C12.8 9 11.8 8.5 11 8 9.6 6.8 8.5 6 7.4 5.5c-1-.5-2-.7-3.3-1l-1-.1H3l.3-.4.8-.9C5.4 2 7 1.5 9 2a7.3 7.3 0 0 1 2.9 1l1.2.8.5.5c.2.1.3.2.5.1.2 0 .3 0 .5-.2l.6-.4c1.4-1.3 3.6-2.1 5.4-2.1 2.5 0 4.8 2 5.5 4.7l.3 1.8v.6c.1 0 0 .1 0 .2z"/></symbol><symbol id="icon-stat-milk" viewBox="0 0 32 32"><path fill="var(--current-color)" d="M8 .1c-.3.2-.5.6-.5 1 0 .9.2 1.6.7 2.3l.1.2L8 4l-.7 1.1c0 .4-.1 1.2 0 1.6a2.7 2.7 0 0 0 4.5 1.2l.3-.3.4.2.7.3.4.2V9c0 1 .2 1.7.8 2.3s1.5 1 2.3.8c.6-.1 1.1-.4 1.5-.8.6-.6.8-1.2.8-2.3v-.7l.4-.2.7-.3.4-.2.4.3c.4.4.7.6 1.2.7 1.4.4 2.8-.5 3.2-2V5.2c-.2-.5-.3-.6-.7-1l-.3-.5.2-.2c.4-.7.6-1.4.6-2.2 0-.5-.2-.9-.6-1l-.2-.2h-16l-.2.1zm14.8 2-.4.7c-.6 1-.6 1.2.3 2.1l.6.8c.2.4-.2 1-.7.9-.2 0-.4-.3-.8-.6-.8-.8-1-.9-1.7-.6l-2 1c-.6.1-.8.3-1 .6L17 8.4c0 1.2 0 1.4-.4 1.6H16c-.3-.2-.4-.4-.4-1.6V7c-.3-.3-.5-.5-1-.6-.6-.2-1.4-.5-1.8-.8-.4-.3-.8-.4-1-.3-.2 0-.4.2-1 .6l-.7.7c-.5.1-1-.5-.8-1L10 5c.8-.9.9-1.1.2-2.1L9.8 2h13zM6.2 13.2a1 1 0 0 0-.4.9c0 .2 3 16.9 3.2 17.2 0 .2.3.4.5.6l6.8.1 6.8-.1.6-.6L26.9 14a1 1 0 0 0-.5-.8l-.2-.1H6.5l-.3.1zm18.3 2.3-.7 2a7.8 7.8 0 0 1-6.8 4c-2.2.2-4.2-.3-5.8-1.3a7 7 0 0 1-3-4.7V15h16.3v.4zm-14.3 6.4c2.6 1.8 6.5 2.3 9.8 1.2 1.1-.4 2.3-1 3.2-1.7.3-.2.3-.2.3 0l-.8 4.2-.8 4.2v.1H10.7v-.1l-.8-4.2a280.2 280.2 0 0 0-.6-4.2l.8.5z"/></symbol><symbol id="icon-facebook" viewBox="0 0 32 32"><path fill="var(--current-color)" d="M16 32a16 16 0 1 0 0-32 16 16 0 0 0 0 32z"/><path fill="#fff" d="M20.4 16h-2.6v9.6h-4V16H12v-3.4h1.9v-2.2c0-1.5.7-4 4-4h2.9v3.3h-2.1c-.4 0-.9.2-.9 1v1.9h3l-.4 3.4z"/></symbol><symbol id="icon-github" viewBox="0 0 32 32"><path fill="var(--current-color)" d="M32 16a16 16 0 1 1-32 0 16 16 0 0 1 32 0z"/><path fill="#fff" d="M16 6.6A9.4 9.4 0 0 0 6.6 16c0 4.4 3 8.4 7.2 9.4v-3.1h-1.2c-.6-.2-1-.6-1.3-1.1-.3-.4-.6-.8-1-.8l-.1-1c.8-.1 1.6.5 2 1.2.2.3.4.5.7.6h1c0-.8.3-1 .6-1.4-2.5-.4-3.4-1.7-3.8-2.7-.5-1.4-.3-3 .6-4.1v-.1c-.3-1.3.2-2.3.2-2.5.5.2.5-.1 2 .8l.3.2h.2a8 8 0 0 1 2-.3 8 8 0 0 1 2 .3h.2c1.9-1.2 1.8-.8 2.3-1 0 .2.5 1.2.1 2.5 0 .1 1.7 1.7.7 4.2-.4 1-1.3 2.3-3.8 2.7.3.5.7.7.7 1.7v4c4.1-1 7.2-5 7.2-9.5 0-5.2-4.2-9.4-9.4-9.4z"/></symbol><symbol id="icon-telegram" viewBox="0 0 32 32"><path fill="var(--current-color)" d="M32 16a16 16 0 1 1-32 0 16 16 0 0 1 32 0z"/><path fill="#fff" d="m12.9 18.4-.4 4.1c.5 0 .7-.1 1-.4l2-1.9 4.5 3c.8.5 1.4.3 1.6-.6l2.9-12.7c.2-1.1-.5-1.6-1.2-1.3l-17 6.1C5 15.1 5 15.7 6 16l4.4 1.3 10-6c.6-.2 1 0 .6.2l-8 6.9z"/></symbol></defs></svg>