<?xml version="1.0" standalone="no"?>
<!DOCTYPE svg PUBLIC "-//W3C//DTD SVG 20010904//EN"
 "http://www.w3.org/TR/2001/REC-SVG-20010904/DTD/svg10.dtd">
<svg version="1.0" xmlns="http://www.w3.org/2000/svg"
 width="71.000000pt" height="71.000000pt" viewBox="0 0 71.000000 71.000000"
 preserveAspectRatio="xMidYMid meet">
<metadata>
Created by potrace 1.14, written by Peter Selinger 2001-2017
</metadata>
<g transform="translate(0.000000,71.000000) scale(0.100000,-0.100000)"
fill="#000000" stroke="none">
<path d="M260 701 c-44 -14 -124 -58 -156 -88 -17 -15 -47 -55 -65 -88 -33
-58 -34 -64 -33 -165 0 -91 3 -112 26 -157 14 -29 28 -50 32 -46 3 3 6 -1 6
-10 0 -20 103 -103 140 -113 3 0 14 -4 25 -8 11 -4 32 -12 46 -18 31 -11 139
-8 139 4 0 5 4 7 8 4 21 -13 192 93 192 118 0 4 11 22 25 40 14 18 22 36 18
39 -3 4 -1 7 4 7 6 0 14 18 18 40 4 22 12 40 18 40 7 0 5 5 -3 10 -8 5 -10 10
-5 10 6 0 12 11 13 26 1 18 -2 23 -11 18 -8 -5 -7 -2 2 9 11 14 11 17 0 17
-12 0 -12 2 0 9 9 6 10 11 2 15 -6 4 -11 14 -11 23 0 30 -51 120 -90 159 -48
48 -57 55 -95 74 -16 8 -33 19 -36 24 -9 11 -176 16 -209 7z"/>
</g>
</svg>
